<svg id="Layer_1" data-name="Layer 1" xmlns="http://www.w3.org/2000/svg" viewBox="0 0 167.13 38.68"><defs><style>.cls-1,.cls-3,.cls-4{fill:#deb023;}.cls-2{fill:#fff;}.cls-3{stroke:#231f20;stroke-width:5px;}.cls-3,.cls-4{stroke-miterlimit:10;}.cls-4{stroke:#deb023;stroke-width:2px;}</style></defs><title>The Golden Candle Icon and type</title><path class="cls-1" d="M20.13,40.59H16.42V32.24h3.71v8.36Z" transform="translate(-12 -5)"/><path class="cls-1" d="M20.1,41.25c0.42,1.32,1.35,1.89,3.37,2v0.38H13V43.3c2-.15,3.15-0.82,3.39-2.06H20.1Z" transform="translate(-12 -5)"/><path class="cls-1" d="M19.42,12.86A3.68,3.68,0,0,0,18.58,11H18.49a3,3,0,0,0-1,2.28l-0.1,0c-0.84-1.23-1.81-3-.79-4.33a7.3,7.3,0,0,0,1.89-4,0.06,0.06,0,0,1,.11,0c0.32,1.27.18,1.61,2,4,0.73,1,.36,2.63-0.23,4A0.46,0.46,0,0,1,19.42,12.86Z" transform="translate(-12 -5)"/><circle class="cls-2" cx="-30.5" cy="-210.5"/><path class="cls-1" d="M20.28,29.26L19.72,14.87a1.25,1.25,0,0,0-.8-1.12h0a1.25,1.25,0,0,0-1.69,1.08l-1,14.39a1.25,1.25,0,0,0,1.25,1.34H19A1.25,1.25,0,0,0,20.28,29.26Z" transform="translate(-12 -5)"/><path class="cls-1" d="M18,15V12.67a0.63,0.63,0,0,1,.43-0.43,0.33,0.33,0,0,1,.29.29l-0.11,2.09" transform="translate(-12 -5)"/><path class="cls-1" d="M36.15,31.7V42.64H34V38h-5v4.67H27V31.7h2.13v4.42h5V31.7h2.11Z" transform="translate(-12 -5)"/><path class="cls-1" d="M46,40.77v1.86h-7.6V31.7h7.46v1.86H40.56v2.63h4.61v1.73H40.56v2.85H46Z" transform="translate(-12 -5)"/><path class="cls-1" d="M59,41.4a4.18,4.18,0,0,1-3.05,1.31,4.84,4.84,0,0,1-2-.43,5.12,5.12,0,0,1-1.65-1.19,5.67,5.67,0,0,1-1.11-1.78,5.92,5.92,0,0,1-.41-2.21,5.55,5.55,0,0,1,1.53-3.86A5.4,5.4,0,0,1,54,32.06a5.07,5.07,0,0,1,2.11-.44,5.13,5.13,0,0,1,2.64.65A4.2,4.2,0,0,1,60.38,34l-1.59,1.17a3,3,0,0,0-1.16-1.25A3.2,3.2,0,0,0,56,33.5a2.76,2.76,0,0,0-1.27.29,3,3,0,0,0-1,.8,3.78,3.78,0,0,0-.63,1.17,4.35,4.35,0,0,0-.22,1.4,4.14,4.14,0,0,0,.25,1.44,3.66,3.66,0,0,0,.68,1.16,3.18,3.18,0,0,0,1,.78,2.94,2.94,0,0,0,1.29.29A3.73,3.73,0,0,0,59,39.34V38.57h-2.2V37h4v5.62H59V41.4Z" transform="translate(-12 -5)"/><path class="cls-1" d="M67.24,42.71a5,5,0,0,1-2.18-.47A5.36,5.36,0,0,1,63.38,41a5.8,5.8,0,0,1-1.47-3.83,5.49,5.49,0,0,1,.41-2.1,5.78,5.78,0,0,1,1.13-1.77,5.36,5.36,0,0,1,1.7-1.23,5,5,0,0,1,2.14-.45,4.8,4.8,0,0,1,2.16.49,5.4,5.4,0,0,1,1.67,1.27,5.86,5.86,0,0,1,1.08,1.79,5.63,5.63,0,0,1,.39,2,5.53,5.53,0,0,1-.4,2.09A5.67,5.67,0,0,1,71.07,41a5.31,5.31,0,0,1-1.69,1.22A5.05,5.05,0,0,1,67.24,42.71Zm-3.17-5.55a4.39,4.39,0,0,0,.22,1.37,3.65,3.65,0,0,0,.62,1.17,3.11,3.11,0,0,0,1,.82,2.89,2.89,0,0,0,1.35.31,2.85,2.85,0,0,0,1.36-.32,3.1,3.1,0,0,0,1-.84,3.74,3.74,0,0,0,.62-1.18,4.38,4.38,0,0,0,.21-1.33,4.28,4.28,0,0,0-.22-1.37,3.81,3.81,0,0,0-.63-1.17,3,3,0,0,0-1-.81,3.12,3.12,0,0,0-2.7,0,3,3,0,0,0-1,.83,3.75,3.75,0,0,0-.61,1.17A4.37,4.37,0,0,0,64.06,37.17Z" transform="translate(-12 -5)"/><path class="cls-1" d="M74.22,42.64V31.7h2.13v9.08h5.58v1.86H74.22Z" transform="translate(-12 -5)"/><path class="cls-1" d="M83.22,42.64V31.7h4a5.93,5.93,0,0,1,2.35.43,4.72,4.72,0,0,1,2.7,2.9,6.51,6.51,0,0,1,.34,2.12,6.41,6.41,0,0,1-.38,2.26,4.83,4.83,0,0,1-1.09,1.73,4.9,4.9,0,0,1-1.7,1.11,6,6,0,0,1-2.23.39h-4Zm7.23-5.49a4.65,4.65,0,0,0-.22-1.45,3.23,3.23,0,0,0-.63-1.14,2.81,2.81,0,0,0-1-.74,3.46,3.46,0,0,0-1.38-.26H85.34v7.21h1.85a3.32,3.32,0,0,0,1.39-.28,2.85,2.85,0,0,0,1-.76,3.39,3.39,0,0,0,.62-1.15A4.59,4.59,0,0,0,90.44,37.15Z" transform="translate(-12 -5)"/><path class="cls-1" d="M101.85,40.77v1.86h-7.6V31.7h7.46v1.86H96.38v2.63H101v1.73H96.38v2.85h5.47Z" transform="translate(-12 -5)"/><path class="cls-1" d="M105.64,35.62v7h-2.13V31.7h1.65l5.7,7.18V31.71H113V42.64h-1.73Z" transform="translate(-12 -5)"/><path class="cls-1" d="M118.31,37.09a5.66,5.66,0,0,1,.36-2,5.39,5.39,0,0,1,1.06-1.75,5.33,5.33,0,0,1,1.7-1.25,5.23,5.23,0,0,1,2.28-.48,5,5,0,0,1,2.61.66A4.23,4.23,0,0,1,128,34l-1.63,1.13a2.79,2.79,0,0,0-.52-0.78,2.65,2.65,0,0,0-.66-0.5,3,3,0,0,0-.74-0.27,3.49,3.49,0,0,0-.76-0.09,2.88,2.88,0,0,0-1.39.32,3.08,3.08,0,0,0-1,.84,3.67,3.67,0,0,0-.59,1.17,4.41,4.41,0,0,0-.2,1.3,4.26,4.26,0,0,0,.23,1.39,3.71,3.71,0,0,0,.66,1.18,3.27,3.27,0,0,0,1,.82,2.78,2.78,0,0,0,1.3.31,3.47,3.47,0,0,0,.77-0.09,2.93,2.93,0,0,0,.76-0.29,2.87,2.87,0,0,0,.67-0.52,2.38,2.38,0,0,0,.49-0.76l1.74,1a3.29,3.29,0,0,1-.75,1.09,4.8,4.8,0,0,1-1.09.79,5.56,5.56,0,0,1-1.3.49,5.72,5.72,0,0,1-1.36.17,4.66,4.66,0,0,1-2.14-.49,5.56,5.56,0,0,1-1.67-1.29,6,6,0,0,1-1.09-1.8A5.63,5.63,0,0,1,118.31,37.09Z" transform="translate(-12 -5)"/><path class="cls-1" d="M132.5,31.7h1.88l4.16,10.94h-2.19l-1-2.73h-3.82l-1,2.73h-2.19Zm2.45,6.72-1.51-4.3-1.57,4.3h3.08Z" transform="translate(-12 -5)"/><path class="cls-1" d="M141.87,35.62v7h-2.13V31.7h1.65l5.7,7.18V31.71h2.13V42.64h-1.73Z" transform="translate(-12 -5)"/><path class="cls-1" d="M151.5,42.64V31.7h4a5.93,5.93,0,0,1,2.35.43,4.72,4.72,0,0,1,2.7,2.9,6.51,6.51,0,0,1,.34,2.12,6.4,6.4,0,0,1-.38,2.26,4.83,4.83,0,0,1-1.09,1.73,4.9,4.9,0,0,1-1.7,1.11,6,6,0,0,1-2.23.39h-4Zm7.23-5.49a4.65,4.65,0,0,0-.22-1.45,3.25,3.25,0,0,0-.63-1.14,2.81,2.81,0,0,0-1-.74,3.46,3.46,0,0,0-1.38-.26h-1.85v7.21h1.85a3.32,3.32,0,0,0,1.39-.28,2.85,2.85,0,0,0,1-.76,3.41,3.41,0,0,0,.62-1.15A4.59,4.59,0,0,0,158.73,37.15Z" transform="translate(-12 -5)"/><path class="cls-1" d="M162.53,42.64V31.7h2.13v9.08h5.58v1.86h-7.7Z" transform="translate(-12 -5)"/><path class="cls-1" d="M179.13,40.77v1.86h-7.6V31.7H179v1.86h-5.33v2.63h4.61v1.73h-4.61v2.85h5.47Z" transform="translate(-12 -5)"/><path class="cls-3" d="M12.35,32.72" transform="translate(-12 -5)"/><line class="cls-4" y1="27" x2="13" y2="27"/></svg>