<?xml version="1.0" standalone="no"?>
<!DOCTYPE svg PUBLIC "-//W3C//DTD SVG 20010904//EN"
 "http://www.w3.org/TR/2001/REC-SVG-20010904/DTD/svg10.dtd">
<svg version="1.0" xmlns="http://www.w3.org/2000/svg"
 width="2083.000000pt" height="2083.000000pt" viewBox="0 0 2083.000000 2083.000000"
 preserveAspectRatio="xMidYMid meet">
<metadata>
Created by potrace 1.11, written by Peter Selinger 2001-2013
</metadata>
<g transform="translate(0.000000,2083.000000) scale(0.100000,-0.100000)"
fill="#000000" stroke="none">
<path d="M10489 19946 c-1 -3 -2 -9 -3 -13 -1 -5 -6 -26 -11 -48 -4 -22 -9
-44 -10 -50 -2 -5 -10 -48 -20 -95 -66 -326 -151 -592 -248 -775 -137 -257
-298 -502 -560 -849 -140 -185 -200 -311 -233 -485 -70 -368 63 -828 396
-1372 126 -206 166 -258 190 -252 27 7 27 7 34 85 4 37 9 77 11 90 2 13 7 45
10 71 3 27 10 69 16 95 6 26 13 57 15 70 9 48 65 187 100 250 88 157 312 433
351 432 10 -1 37 -24 59 -53 155 -195 275 -448 329 -692 45 -202 62 -236 144
-277 65 -33 127 -36 187 -9 72 33 100 74 174 260 43 108 130 361 136 398 2 12
9 34 14 48 5 14 7 25 5 25 -2 0 0 11 5 25 5 14 12 36 14 48 2 12 11 56 20 97
8 41 18 98 22 125 3 28 8 59 11 70 3 11 6 100 8 197 2 190 -12 303 -56 438
-43 130 -67 169 -264 435 -303 407 -526 774 -613 1005 -11 30 -23 64 -28 75
-4 11 -8 25 -10 30 -1 6 -14 49 -28 96 -14 48 -33 120 -42 160 -8 41 -17 81
-19 89 -2 8 -11 47 -19 85 -34 155 -40 170 -63 173 -13 2 -24 1 -24 -2z"/>
<path d="M10492 16510 c-17 -11 -38 -39 -52 -71 -23 -52 -23 -64 -24 -323 l-2
-270 -58 -13 c-159 -36 -313 -157 -385 -302 -55 -109 -58 -123 -76 -381 -3
-41 -8 -100 -10 -130 -2 -30 -7 -100 -10 -155 -4 -55 -8 -116 -10 -137 -4 -33
-6 -70 -20 -293 -3 -38 -7 -95 -9 -125 -3 -30 -8 -95 -11 -145 -3 -49 -8 -112
-10 -140 -2 -27 -7 -95 -10 -150 -4 -55 -8 -118 -10 -140 -2 -22 -6 -85 -10
-140 -3 -55 -8 -122 -10 -150 -3 -27 -7 -90 -10 -140 -3 -49 -7 -112 -10 -140
-2 -27 -7 -86 -10 -130 -6 -94 -14 -216 -21 -300 -2 -33 -6 -98 -9 -145 -3
-47 -7 -103 -9 -125 -3 -22 -8 -92 -11 -155 -4 -63 -9 -131 -10 -150 -2 -19
-6 -78 -10 -130 -3 -52 -8 -122 -10 -155 -13 -166 -22 -291 -30 -420 -3 -44
-8 -111 -11 -150 -6 -80 -12 -164 -19 -280 -3 -44 -7 -107 -10 -140 -4 -61
-10 -144 -20 -290 -3 -44 -8 -107 -10 -140 -10 -120 -15 -192 -21 -285 -4 -52
-8 -111 -9 -130 -1 -19 -6 -84 -10 -145 -3 -60 -8 -126 -10 -145 -2 -19 -6
-80 -9 -135 -4 -55 -8 -122 -11 -150 -2 -27 -7 -95 -10 -150 -4 -55 -8 -118
-10 -140 -2 -22 -6 -83 -10 -135 -3 -52 -8 -117 -10 -145 -2 -27 -7 -93 -10
-145 -4 -52 -8 -111 -11 -130 -11 -103 -6 -268 11 -325 61 -207 221 -366 425
-421 57 -15 119 -17 515 -18 500 0 506 1 642 65 151 72 271 224 313 394 12 48
14 230 5 400 -2 44 -7 154 -10 245 -3 91 -8 208 -10 260 -2 52 -7 167 -10 255
-3 88 -8 197 -10 241 -2 45 -7 158 -10 250 -3 93 -8 214 -10 269 -2 55 -7 168
-10 250 -3 83 -7 200 -10 260 -3 61 -7 175 -10 255 -6 153 -11 295 -20 500 -3
69 -7 190 -10 270 -3 80 -8 195 -10 255 -3 61 -7 175 -10 255 -3 80 -8 199
-10 265 -3 66 -7 170 -10 230 -2 61 -7 182 -10 270 -4 88 -8 205 -10 260 -2
55 -7 172 -10 260 -3 88 -8 203 -10 255 -2 52 -7 163 -10 245 -3 83 -8 202
-11 265 -2 63 -6 180 -9 260 -3 80 -7 192 -10 250 -2 58 -7 170 -10 250 -9
234 -14 278 -40 357 -56 167 -192 308 -349 364 l-51 17 -2 109 c-1 59 -2 200
-2 313 -1 198 -2 206 -24 233 -31 39 -95 51 -135 27z"/>
<path d="M8124 7525 c11 -105 86 -220 194 -298 48 -35 198 -117 214 -117 16 0
302 -146 373 -190 169 -106 279 -202 452 -393 37 -41 101 -72 174 -85 28 -5
424 -10 880 -10 995 0 958 -4 1059 123 123 154 310 307 520 424 76 43 144 75
355 172 155 71 275 182 313 292 13 35 25 81 27 101 l3 36 -2285 0 -2285 0 6
-55z"/>
<path d="M9524 4123 l1 -1978 878 -1 877 -1 0 1978 0 1979 -878 0 -879 0 1
-1977z"/>
<path d="M9539 1989 c-5 -3 -12 -17 -14 -31 -11 -57 -59 -187 -91 -248 -155
-285 -442 -480 -869 -590 -139 -36 -153 -39 -315 -64 -102 -15 -186 -26 -264
-31 -53 -4 -64 -13 -60 -48 1 -12 3 -47 3 -79 l1 -56 2470 0 2470 0 0 92 c0
67 -3 93 -12 93 -25 0 -183 15 -202 19 -10 2 -44 6 -75 9 -31 4 -64 9 -74 11
-10 3 -32 7 -50 10 -114 14 -309 67 -467 126 -125 47 -292 151 -394 248 -116
109 -235 297 -299 476 l-24 67 -862 1 c-475 1 -867 -2 -872 -5z"/>
</g>
</svg>
